<?xml version="1.0" encoding="UTF-8" standalone="no"?>
<!DOCTYPE svg PUBLIC "-//W3C//DTD SVG 1.1//EN" "http://www.w3.org/Graphics/SVG/1.1/DTD/svg11.dtd">
<svg xmlns="http://www.w3.org/2000/svg" xmlns:xlink="http://www.w3.org/1999/xlink" version="1.1" width="185.878pt" height="153.76pt" viewBox="0 0 185.878 153.76">
<g enable-background="new">
<path transform="matrix(.8,0,0,-.8,28.8664,174.20079)" stroke-width=".19925" stroke-linecap="butt" stroke-miterlimit="10" stroke-linejoin="miter" fill="none" stroke="#929292" d="M 19.43895 52.23769 L 19.43895 56.48888 M 58.29375 52.23769 L 58.29375 56.48888 M 97.14854 52.23769 L 97.14854 56.48888 M 136.00334 52.23769 L 136.00334 56.48888 M 174.85814 52.23769 L 174.85814 56.48888 "/>
<path transform="matrix(.8,0,0,-.8,28.8664,174.20079)" stroke-width=".19925" stroke-linecap="butt" stroke-miterlimit="10" stroke-linejoin="miter" fill="none" stroke="#929292" d="M -2.12279 67.94608 L 2.12279 67.94608 M -2.12279 95.1245 L 2.12279 95.1245 M -2.12279 122.30293 L 2.12279 122.30293 M -2.12279 149.48137 L 2.12279 149.48137 M -2.12279 176.65979 L 2.12279 176.65979 M -2.12279 203.83823 L 2.12279 203.83823 "/>
<path transform="matrix(.8,0,0,-.8,28.8664,174.20079)" stroke-width=".3985" stroke-linecap="butt" stroke-miterlimit="10" stroke-linejoin="miter" fill="none" stroke="#000004" d="M 0 54.36327 L 192.28145 54.36327 "/>
<path transform="matrix(.8,0,0,-.8,182.69156,130.71018)" d="M 1.99252 0 L -1.19551 1.59401 L 0 0 L -1.19551 -1.59401 " fill="#000004"/>
<path transform="matrix(.8,0,0,-.8,28.8664,174.20079)" stroke-width=".3985" stroke-linecap="butt" stroke-miterlimit="10" stroke-linejoin="miter" fill="none" stroke="#000004" d="M 0 54.36327 L 0 213.76737 "/>
<path transform="matrix(0,-.8,-.8,-0,28.8664,3.1868897)" d="M 1.99252 0 L -1.19551 1.59401 L 0 0 L -1.19551 -1.59401 " fill="#000004"/>
<text xml:space="preserve" transform="matrix(.8 0 -0 .8 0 153.76)" font-size="9.9626" font-family="CMR10"><tspan y="-16.746" x="45.559 50.5403 55.5216 60.5029">2012</tspan></text>
<text xml:space="preserve" transform="matrix(.8 0 -0 .8 0 153.76)" font-size="9.9626" font-family="CMR10"><tspan y="-16.746" x="84.413 89.3943 94.3756 99.3569">2014</tspan></text>
<text xml:space="preserve" transform="matrix(.8 0 -0 .8 0 153.76)" font-size="9.9626" font-family="CMR10"><tspan y="-16.746" x="123.267 128.24829 133.22959 138.21088">2016</tspan></text>
<text xml:space="preserve" transform="matrix(.8 0 -0 .8 0 153.76)" font-size="9.9626" font-family="CMR10"><tspan y="-16.746" x="162.121 167.1023 172.08359 177.06488">2018</tspan></text>
<text xml:space="preserve" transform="matrix(.8 0 -0 .8 0 153.76)" font-size="9.9626" font-family="CMR10"><tspan y="-16.746" x="200.976 205.95729 210.93859 215.91988">2020</tspan></text>
<text xml:space="preserve" transform="matrix(.8 0 -0 .8 -.0000019073487 153.76)" font-size="9.9626" font-family="CMR10"><tspan y="-38.34" x="20.989">2</tspan></text>
<text xml:space="preserve" transform="matrix(.8 0 -0 .8 -.0000019073487 153.76)" font-size="6.9738" font-family="CMR7"><tspan y="-41.955" x="25.971">5</tspan></text>
<text xml:space="preserve" transform="matrix(.8 0 -0 .8 -.0000019073487 153.75998)" font-size="9.9626" font-family="CMR10"><tspan y="-65.518" x="20.989">2</tspan></text>
<text xml:space="preserve" transform="matrix(.8 0 -0 .8 -.0000019073487 153.75998)" font-size="6.9738" font-family="CMR7"><tspan y="-69.132999" x="25.971">7</tspan></text>
<text xml:space="preserve" transform="matrix(.8 0 -0 .8 -.0000019073487 153.75998)" font-size="9.9626" font-family="CMR10"><tspan y="-92.696" x="20.989">2</tspan></text>
<text xml:space="preserve" transform="matrix(.8 0 -0 .8 -.0000019073487 153.75998)" font-size="6.9738" font-family="CMR7"><tspan y="-96.311" x="25.971">9</tspan></text>
<text xml:space="preserve" transform="matrix(.8 0 -0 .8 -.0000009536743 153.75998)" font-size="9.9626" font-family="CMR10"><tspan y="-119.874" x="17.018">2</tspan></text>
<text xml:space="preserve" transform="matrix(.8 0 -0 .8 -.0000009536743 153.75998)" font-size="6.9738" font-family="CMR7"><tspan y="-123.489" x="21.999 25.974068">11</tspan></text>
<text xml:space="preserve" transform="matrix(.8 0 -0 .8 -.0000009536743 153.76)" font-size="9.9626" font-family="CMR10"><tspan y="-147.052" x="17.018">2</tspan></text>
<text xml:space="preserve" transform="matrix(.8 0 -0 .8 -.0000009536743 153.76)" font-size="6.9738" font-family="CMR7"><tspan y="-150.667" x="21.999 25.974068">13</tspan></text>
<text xml:space="preserve" transform="matrix(.8 0 -0 .8 -.0000009536743 153.75998)" font-size="9.9626" font-family="CMR10"><tspan y="-174.23" x="17.018">2</tspan></text>
<text xml:space="preserve" transform="matrix(.8 0 -0 .8 -.0000009536743 153.75998)" font-size="6.9738" font-family="CMR7"><tspan y="-177.845" x="21.999 25.974068">15</tspan></text>
<clipPath id="cp0">
<path transform="matrix(.8,0,0,-.8,28.8664,174.20079)" d="M 0 54.36327 L 194.27399 54.36327 L 194.27399 215.75989 L 0 215.75989 Z "/>
</clipPath>
<g clip-path="url(#cp0)">
<path transform="matrix(.8,0,0,-.8,28.8664,174.20079)" stroke-width=".99628" stroke-linecap="butt" stroke-miterlimit="10" stroke-linejoin="miter" fill="none" stroke="#420b66" d="M 0 78.57446 L 19.4274 78.57446 L 38.8548 78.2145 L 58.2822 80.60426 L 77.7096 86.87778 L 97.137 87.79015 L 116.56439 95.29018 L 135.99179 103.78654 L 155.41919 109.40607 L 174.84659 124.35492 L 194.27399 138.85712 "/>
<path transform="matrix(.8,0,0,-.8,28.8664,174.20079)" stroke-width=".99628" stroke-linecap="butt" stroke-miterlimit="10" stroke-linejoin="miter" fill="none" stroke="#932667" d="M 0 178.61534 L 19.4274 180.31856 L 38.8548 182.1039 L 58.2822 183.33518 L 77.7096 184.97016 L 97.137 186.18608 L 116.56439 193.48458 L 135.99179 203.88446 L 155.41919 211.91574 L 174.84659 215.75989 L 194.27399 212.65599 "/>
</g>
<path transform="matrix(.8,0,0,-.8,28.8664,174.20079)" d="M 1.99255 78.57446 C 1.99255 79.67493 1.10046 80.56702 0 80.56702 C -1.10046 80.56702 -1.99255 79.67493 -1.99255 78.57446 C -1.99255 77.47398 -1.10046 76.58191 0 76.58191 C 1.10046 76.58191 1.99255 77.47398 1.99255 78.57446 Z M 0 78.57446 " fill="#340952"/>
<path transform="matrix(.8,0,0,-.8,28.8664,174.20079)" stroke-width=".99628" stroke-linecap="butt" stroke-miterlimit="10" stroke-linejoin="miter" fill="none" stroke="#420b66" d="M 1.99255 78.57446 C 1.99255 79.67493 1.10046 80.56702 0 80.56702 C -1.10046 80.56702 -1.99255 79.67493 -1.99255 78.57446 C -1.99255 77.47398 -1.10046 76.58191 0 76.58191 C 1.10046 76.58191 1.99255 77.47398 1.99255 78.57446 Z M 0 78.57446 "/>
<path transform="matrix(.8,0,0,-.8,28.8664,174.20079)" d="M 21.41995 78.57446 C 21.41995 79.67493 20.52786 80.56702 19.4274 80.56702 C 18.32692 80.56702 17.43484 79.67493 17.43484 78.57446 C 17.43484 77.47398 18.32692 76.58191 19.4274 76.58191 C 20.52786 76.58191 21.41995 77.47398 21.41995 78.57446 Z M 19.4274 78.57446 " fill="#340952"/>
<path transform="matrix(.8,0,0,-.8,28.8664,174.20079)" stroke-width=".99628" stroke-linecap="butt" stroke-miterlimit="10" stroke-linejoin="miter" fill="none" stroke="#420b66" d="M 21.41995 78.57446 C 21.41995 79.67493 20.52786 80.56702 19.4274 80.56702 C 18.32692 80.56702 17.43484 79.67493 17.43484 78.57446 C 17.43484 77.47398 18.32692 76.58191 19.4274 76.58191 C 20.52786 76.58191 21.41995 77.47398 21.41995 78.57446 Z M 19.4274 78.57446 "/>
<path transform="matrix(.8,0,0,-.8,28.8664,174.20079)" d="M 40.84735 78.2145 C 40.84735 79.31496 39.95526 80.20705 38.8548 80.20705 C 37.75432 80.20705 36.86224 79.31496 36.86224 78.2145 C 36.86224 77.11401 37.75432 76.22194 38.8548 76.22194 C 39.95526 76.22194 40.84735 77.11401 40.84735 78.2145 Z M 38.8548 78.2145 " fill="#340952"/>
<path transform="matrix(.8,0,0,-.8,28.8664,174.20079)" stroke-width=".99628" stroke-linecap="butt" stroke-miterlimit="10" stroke-linejoin="miter" fill="none" stroke="#420b66" d="M 40.84735 78.2145 C 40.84735 79.31496 39.95526 80.20705 38.8548 80.20705 C 37.75432 80.20705 36.86224 79.31496 36.86224 78.2145 C 36.86224 77.11401 37.75432 76.22194 38.8548 76.22194 C 39.95526 76.22194 40.84735 77.11401 40.84735 78.2145 Z M 38.8548 78.2145 "/>
<path transform="matrix(.8,0,0,-.8,28.8664,174.20079)" d="M 60.27475 80.60426 C 60.27475 81.70473 59.38266 82.59682 58.2822 82.59682 C 57.18172 82.59682 56.28964 81.70473 56.28964 80.60426 C 56.28964 79.50378 57.18172 78.61171 58.2822 78.61171 C 59.38266 78.61171 60.27475 79.50378 60.27475 80.60426 Z M 58.2822 80.60426 " fill="#340952"/>
<path transform="matrix(.8,0,0,-.8,28.8664,174.20079)" stroke-width=".99628" stroke-linecap="butt" stroke-miterlimit="10" stroke-linejoin="miter" fill="none" stroke="#420b66" d="M 60.27475 80.60426 C 60.27475 81.70473 59.38266 82.59682 58.2822 82.59682 C 57.18172 82.59682 56.28964 81.70473 56.28964 80.60426 C 56.28964 79.50378 57.18172 78.61171 58.2822 78.61171 C 59.38266 78.61171 60.27475 79.50378 60.27475 80.60426 Z M 58.2822 80.60426 "/>
<path transform="matrix(.8,0,0,-.8,28.8664,174.20079)" d="M 79.70215 86.87778 C 79.70215 87.97826 78.81006 88.87033 77.7096 88.87033 C 76.60912 88.87033 75.71704 87.97826 75.71704 86.87778 C 75.71704 85.77731 76.60912 84.88522 77.7096 84.88522 C 78.81006 84.88522 79.70215 85.77731 79.70215 86.87778 Z M 77.7096 86.87778 " fill="#340952"/>
<path transform="matrix(.8,0,0,-.8,28.8664,174.20079)" stroke-width=".99628" stroke-linecap="butt" stroke-miterlimit="10" stroke-linejoin="miter" fill="none" stroke="#420b66" d="M 79.70215 86.87778 C 79.70215 87.97826 78.81006 88.87033 77.7096 88.87033 C 76.60912 88.87033 75.71704 87.97826 75.71704 86.87778 C 75.71704 85.77731 76.60912 84.88522 77.7096 84.88522 C 78.81006 84.88522 79.70215 85.77731 79.70215 86.87778 Z M 77.7096 86.87778 "/>
<path transform="matrix(.8,0,0,-.8,28.8664,174.20079)" d="M 99.12955 87.79015 C 99.12955 88.89061 98.23746 89.7827 97.137 89.7827 C 96.03651 89.7827 95.14444 88.89061 95.14444 87.79015 C 95.14444 86.68967 96.03651 85.79759 97.137 85.79759 C 98.23746 85.79759 99.12955 86.68967 99.12955 87.79015 Z M 97.137 87.79015 " fill="#340952"/>
<path transform="matrix(.8,0,0,-.8,28.8664,174.20079)" stroke-width=".99628" stroke-linecap="butt" stroke-miterlimit="10" stroke-linejoin="miter" fill="none" stroke="#420b66" d="M 99.12955 87.79015 C 99.12955 88.89061 98.23746 89.7827 97.137 89.7827 C 96.03651 89.7827 95.14444 88.89061 95.14444 87.79015 C 95.14444 86.68967 96.03651 85.79759 97.137 85.79759 C 98.23746 85.79759 99.12955 86.68967 99.12955 87.79015 Z M 97.137 87.79015 "/>
<path transform="matrix(.8,0,0,-.8,28.8664,174.20079)" d="M 118.55695 95.29018 C 118.55695 96.39064 117.66486 97.28273 116.56439 97.28273 C 115.46391 97.28273 114.57184 96.39064 114.57184 95.29018 C 114.57184 94.1897 115.46391 93.29762 116.56439 93.29762 C 117.66486 93.29762 118.55695 94.1897 118.55695 95.29018 Z M 116.56439 95.29018 " fill="#340952"/>
<path transform="matrix(.8,0,0,-.8,28.8664,174.20079)" stroke-width=".99628" stroke-linecap="butt" stroke-miterlimit="10" stroke-linejoin="miter" fill="none" stroke="#420b66" d="M 118.55695 95.29018 C 118.55695 96.39064 117.66486 97.28273 116.56439 97.28273 C 115.46391 97.28273 114.57184 96.39064 114.57184 95.29018 C 114.57184 94.1897 115.46391 93.29762 116.56439 93.29762 C 117.66486 93.29762 118.55695 94.1897 118.55695 95.29018 Z M 116.56439 95.29018 "/>
<path transform="matrix(.8,0,0,-.8,28.8664,174.20079)" d="M 137.98435 103.78654 C 137.98435 104.88701 137.09226 105.7791 135.99179 105.7791 C 134.89131 105.7791 133.99924 104.88701 133.99924 103.78654 C 133.99924 102.68607 134.89131 101.79399 135.99179 101.79399 C 137.09226 101.79399 137.98435 102.68607 137.98435 103.78654 Z M 135.99179 103.78654 " fill="#340952"/>
<path transform="matrix(.8,0,0,-.8,28.8664,174.20079)" stroke-width=".99628" stroke-linecap="butt" stroke-miterlimit="10" stroke-linejoin="miter" fill="none" stroke="#420b66" d="M 137.98435 103.78654 C 137.98435 104.88701 137.09226 105.7791 135.99179 105.7791 C 134.89131 105.7791 133.99924 104.88701 133.99924 103.78654 C 133.99924 102.68607 134.89131 101.79399 135.99179 101.79399 C 137.09226 101.79399 137.98435 102.68607 137.98435 103.78654 Z M 135.99179 103.78654 "/>
<path transform="matrix(.8,0,0,-.8,28.8664,174.20079)" d="M 157.41175 109.40607 C 157.41175 110.50653 156.51966 111.39862 155.41919 111.39862 C 154.31871 111.39862 153.42664 110.50653 153.42664 109.40607 C 153.42664 108.30559 154.31871 107.41351 155.41919 107.41351 C 156.51966 107.41351 157.41175 108.30559 157.41175 109.40607 Z M 155.41919 109.40607 " fill="#340952"/>
<path transform="matrix(.8,0,0,-.8,28.8664,174.20079)" stroke-width=".99628" stroke-linecap="butt" stroke-miterlimit="10" stroke-linejoin="miter" fill="none" stroke="#420b66" d="M 157.41175 109.40607 C 157.41175 110.50653 156.51966 111.39862 155.41919 111.39862 C 154.31871 111.39862 153.42664 110.50653 153.42664 109.40607 C 153.42664 108.30559 154.31871 107.41351 155.41919 107.41351 C 156.51966 107.41351 157.41175 108.30559 157.41175 109.40607 Z M 155.41919 109.40607 "/>
<path transform="matrix(.8,0,0,-.8,28.8664,174.20079)" d="M 176.83914 124.35492 C 176.83914 125.45538 175.94705 126.34747 174.84659 126.34747 C 173.74611 126.34747 172.85404 125.45538 172.85404 124.35492 C 172.85404 123.25444 173.74611 122.36237 174.84659 122.36237 C 175.94705 122.36237 176.83914 123.25444 176.83914 124.35492 Z M 174.84659 124.35492 " fill="#340952"/>
<path transform="matrix(.8,0,0,-.8,28.8664,174.20079)" stroke-width=".99628" stroke-linecap="butt" stroke-miterlimit="10" stroke-linejoin="miter" fill="none" stroke="#420b66" d="M 176.83914 124.35492 C 176.83914 125.45538 175.94705 126.34747 174.84659 126.34747 C 173.74611 126.34747 172.85404 125.45538 172.85404 124.35492 C 172.85404 123.25444 173.74611 122.36237 174.84659 122.36237 C 175.94705 122.36237 176.83914 123.25444 176.83914 124.35492 Z M 174.84659 124.35492 "/>
<path transform="matrix(.8,0,0,-.8,28.8664,174.20079)" d="M 196.26654 138.85712 C 196.26654 139.95758 195.37445 140.84967 194.27399 140.84967 C 193.17351 140.84967 192.28144 139.95758 192.28144 138.85712 C 192.28144 137.75664 193.17351 136.86457 194.27399 136.86457 C 195.37445 136.86457 196.26654 137.75664 196.26654 138.85712 Z M 194.27399 138.85712 " fill="#340952"/>
<path transform="matrix(.8,0,0,-.8,28.8664,174.20079)" stroke-width=".99628" stroke-linecap="butt" stroke-miterlimit="10" stroke-linejoin="miter" fill="none" stroke="#420b66" d="M 196.26654 138.85712 C 196.26654 139.95758 195.37445 140.84967 194.27399 140.84967 C 193.17351 140.84967 192.28144 139.95758 192.28144 138.85712 C 192.28144 137.75664 193.17351 136.86457 194.27399 136.86457 C 195.37445 136.86457 196.26654 137.75664 196.26654 138.85712 Z M 194.27399 138.85712 "/>
<path transform="matrix(.8,0,0,-.8,28.8664,174.20079)" stroke-width=".99628" stroke-linecap="butt" stroke-miterlimit="10" stroke-linejoin="miter" fill="none" stroke="#420b66" d=""/>
<path transform="matrix(.8,0,0,-.8,28.8664,174.20079)" d="M -1.99255 176.62279 L 1.99255 176.62279 L 1.99255 180.6079 L -1.99255 180.6079 Z " fill="#761e52"/>
<path transform="matrix(.8,0,0,-.8,28.8664,174.20079)" stroke-width=".99628" stroke-linecap="butt" stroke-miterlimit="10" stroke-linejoin="miter" fill="none" stroke="#932667" d="M -1.99255 176.62279 L 1.99255 176.62279 L 1.99255 180.6079 L -1.99255 180.6079 Z "/>
<path transform="matrix(.8,0,0,-.8,28.8664,174.20079)" d="M 17.43484 178.326 L 21.419939 178.326 L 21.419939 182.31111 L 17.43484 182.31111 Z " fill="#761e52"/>
<path transform="matrix(.8,0,0,-.8,28.8664,174.20079)" stroke-width=".99628" stroke-linecap="butt" stroke-miterlimit="10" stroke-linejoin="miter" fill="none" stroke="#932667" d="M 17.43484 178.326 L 21.419939 178.326 L 21.419939 182.31111 L 17.43484 182.31111 Z "/>
<path transform="matrix(.8,0,0,-.8,28.8664,174.20079)" d="M 36.86224 180.11135 L 40.84734 180.11135 L 40.84734 184.09645 L 36.86224 184.09645 Z " fill="#761e52"/>
<path transform="matrix(.8,0,0,-.8,28.8664,174.20079)" stroke-width=".99628" stroke-linecap="butt" stroke-miterlimit="10" stroke-linejoin="miter" fill="none" stroke="#932667" d="M 36.86224 180.11135 L 40.84734 180.11135 L 40.84734 184.09645 L 36.86224 184.09645 Z "/>
<path transform="matrix(.8,0,0,-.8,28.8664,174.20079)" d="M 56.28964 181.34262 L 60.27474 181.34262 L 60.27474 185.32773 L 56.28964 185.32773 Z " fill="#761e52"/>
<path transform="matrix(.8,0,0,-.8,28.8664,174.20079)" stroke-width=".99628" stroke-linecap="butt" stroke-miterlimit="10" stroke-linejoin="miter" fill="none" stroke="#932667" d="M 56.28964 181.34262 L 60.27474 181.34262 L 60.27474 185.32773 L 56.28964 185.32773 Z "/>
<path transform="matrix(.8,0,0,-.8,28.8664,174.20079)" d="M 75.71704 182.9776 L 79.70214 182.9776 L 79.70214 186.9627 L 75.71704 186.9627 Z " fill="#761e52"/>
<path transform="matrix(.8,0,0,-.8,28.8664,174.20079)" stroke-width=".99628" stroke-linecap="butt" stroke-miterlimit="10" stroke-linejoin="miter" fill="none" stroke="#932667" d="M 75.71704 182.9776 L 79.70214 182.9776 L 79.70214 186.9627 L 75.71704 186.9627 Z "/>
<path transform="matrix(.8,0,0,-.8,28.8664,174.20079)" d="M 95.14444 184.19353 L 99.12954 184.19353 L 99.12954 188.17864 L 95.14444 188.17864 Z " fill="#761e52"/>
<path transform="matrix(.8,0,0,-.8,28.8664,174.20079)" stroke-width=".99628" stroke-linecap="butt" stroke-miterlimit="10" stroke-linejoin="miter" fill="none" stroke="#932667" d="M 95.14444 184.19353 L 99.12954 184.19353 L 99.12954 188.17864 L 95.14444 188.17864 Z "/>
<path transform="matrix(.8,0,0,-.8,28.8664,174.20079)" d="M 114.57184 191.49202 L 118.55694 191.49202 L 118.55694 195.47713 L 114.57184 195.47713 Z " fill="#761e52"/>
<path transform="matrix(.8,0,0,-.8,28.8664,174.20079)" stroke-width=".99628" stroke-linecap="butt" stroke-miterlimit="10" stroke-linejoin="miter" fill="none" stroke="#932667" d="M 114.57184 191.49202 L 118.55694 191.49202 L 118.55694 195.47713 L 114.57184 195.47713 Z "/>
<path transform="matrix(.8,0,0,-.8,28.8664,174.20079)" d="M 133.99924 201.8919 L 137.98435 201.8919 L 137.98435 205.87702 L 133.99924 205.87702 Z " fill="#761e52"/>
<path transform="matrix(.8,0,0,-.8,28.8664,174.20079)" stroke-width=".99628" stroke-linecap="butt" stroke-miterlimit="10" stroke-linejoin="miter" fill="none" stroke="#932667" d="M 133.99924 201.8919 L 137.98435 201.8919 L 137.98435 205.87702 L 133.99924 205.87702 Z "/>
<path transform="matrix(.8,0,0,-.8,28.8664,174.20079)" d="M 153.42664 209.92319 L 157.41175 209.92319 L 157.41175 213.9083 L 153.42664 213.9083 Z " fill="#761e52"/>
<path transform="matrix(.8,0,0,-.8,28.8664,174.20079)" stroke-width=".99628" stroke-linecap="butt" stroke-miterlimit="10" stroke-linejoin="miter" fill="none" stroke="#932667" d="M 153.42664 209.92319 L 157.41175 209.92319 L 157.41175 213.9083 L 153.42664 213.9083 Z "/>
<path transform="matrix(.8,0,0,-.8,28.8664,174.20079)" d="M 172.85404 213.76734 L 176.83914 213.76734 L 176.83914 217.75244 L 172.85404 217.75244 Z " fill="#761e52"/>
<path transform="matrix(.8,0,0,-.8,28.8664,174.20079)" stroke-width=".99628" stroke-linecap="butt" stroke-miterlimit="10" stroke-linejoin="miter" fill="none" stroke="#932667" d="M 172.85404 213.76734 L 176.83914 213.76734 L 176.83914 217.75244 L 172.85404 217.75244 Z "/>
<path transform="matrix(.8,0,0,-.8,28.8664,174.20079)" d="M 192.28144 210.66344 L 196.26654 210.66344 L 196.26654 214.64855 L 192.28144 214.64855 Z " fill="#761e52"/>
<path transform="matrix(.8,0,0,-.8,28.8664,174.20079)" stroke-width=".99628" stroke-linecap="butt" stroke-miterlimit="10" stroke-linejoin="miter" fill="none" stroke="#932667" d="M 192.28144 210.66344 L 196.26654 210.66344 L 196.26654 214.64855 L 192.28144 214.64855 Z "/>
<path transform="matrix(.8,0,0,-.8,28.8664,174.20079)" stroke-width=".99628" stroke-linecap="butt" stroke-miterlimit="10" stroke-linejoin="miter" fill="none" stroke="#932667" d=""/>
<text xml:space="preserve" transform="matrix(.8 0 -0 .8 .0000076293949 153.75998)" font-size="9.9626" font-family="NimbusRomNo9L"><tspan y="-3.42" x="124.038 130.23474 134.65814 139.08155">Year</tspan></text>
<text xml:space="preserve" transform="matrix(0 -.8 .8 0 67.0432 102.836788)" font-size="9.9626" font-family="NimbusRomNo9L"><tspan y="-73.729" x="10.075 15.614206 20.595507 25.576807 28.34641 31.116015 34.991468 39.972768 44.39616 52.864374 57.287767 60.605314 63.374917 66.144519 70.56791 73.33751 77.7609">Publishedarticles</tspan></text>
<path transform="matrix(.8,0,0,-.8,28.8664,174.20079)" d="M 118.29666 59.40422 L 188.24674 59.40422 L 188.24674 87.58853 L 118.29666 87.58853 Z " fill="#ffffff"/>
<path transform="matrix(.8,0,0,-.8,28.8664,174.20079)" stroke-width=".3985" stroke-linecap="butt" stroke-miterlimit="10" stroke-linejoin="miter" fill="none" stroke="#000000" d="M 118.29666 59.40422 L 188.24674 59.40422 L 188.24674 87.58853 L 118.29666 87.58853 Z "/>
<path transform="matrix(.8,0,0,-.8,126.292,110.61839)" stroke-width=".99628" stroke-linecap="butt" stroke-miterlimit="10" stroke-linejoin="miter" fill="none" stroke="#420b66" d="M 0 0 L 8.50412 0 L 17.00826 0 "/>
<path transform="matrix(.8,0,0,-.8,126.292,110.61839)" d="M 10.49667 0 C 10.49667 1.10046 9.60458 1.99255 8.50412 1.99255 C 7.40364 1.99255 6.51157 1.10046 6.51157 0 C 6.51157 -1.10046 7.40364 -1.99255 8.50412 -1.99255 C 9.60458 -1.99255 10.49667 -1.10046 10.49667 0 Z M 8.50412 0 " fill="#340952"/>
<path transform="matrix(.8,0,0,-.8,126.292,110.61839)" stroke-width=".99628" stroke-linecap="butt" stroke-miterlimit="10" stroke-linejoin="miter" fill="none" stroke="#420b66" d="M 10.49667 0 C 10.49667 1.10046 9.60458 1.99255 8.50412 1.99255 C 7.40364 1.99255 6.51157 1.10046 6.51157 0 C 6.51157 -1.10046 7.40364 -1.99255 8.50412 -1.99255 C 9.60458 -1.99255 10.49667 -1.10046 10.49667 0 Z M 8.50412 0 "/>
<text xml:space="preserve" transform="matrix(.8 0 -0 .8 0 153.76)" font-size="9.9626" font-family="NimbusRomNo9L"><tspan y="-51.297" x="177.363 182.3443 185.41278 188.18239 190.95198 193.72159 198.70288 206.61319 213.25824">offlineRL</tspan></text>
<path transform="matrix(.8,0,0,-.8,126.29201,120.29759)" stroke-width=".99628" stroke-linecap="butt" stroke-miterlimit="10" stroke-linejoin="miter" fill="none" stroke="#932667" d="M 0 0 L 8.50412 0 L 17.00826 0 "/>
<path transform="matrix(.8,0,0,-.8,126.29201,120.29759)" d="M 6.51157 -1.99255 L 10.49667 -1.99255 L 10.49667 1.99255 L 6.51157 1.99255 Z " fill="#761e52"/>
<path transform="matrix(.8,0,0,-.8,126.29201,120.29759)" stroke-width=".99628" stroke-linecap="butt" stroke-miterlimit="10" stroke-linejoin="miter" fill="none" stroke="#932667" d="M 6.51157 -1.99255 L 10.49667 -1.99255 L 10.49667 1.99255 L 6.51157 1.99255 Z "/>
<text xml:space="preserve" transform="matrix(.8 0 -0 .8 0 153.76)" font-size="9.9626" font-family="NimbusRomNo9L"><tspan y="-39.332" x="177.363 184.00806">RL</tspan></text>
</g>
</svg>
